<svg version="1.2" xmlns="http://www.w3.org/2000/svg" viewBox="0 0 1536 1536" width="1536" height="1536"><style>.a{fill:#e84e6c}</style><path  d="m1125.9 212.6l5.6-47.7q-90.5-10.5-181.5-15.7-90.9-5.3-182-5.3-91.1 0-182.1 5.3c-60.6 3.5-121.1 8.7-181.4 15.7-95.6 11.3-164.6 93.3-164.5 187.5v991.6c0 16.7 8.6 32.1 22.8 40.8 14.2 8.8 31.7 9.6 46.7 2.1l458.5-229.2 458.5 229.2c14.9 7.5 32.5 6.7 46.7-2.1 14.2-8.7 22.8-24.1 22.8-40.8v-991.6c0.1-94.2-69-176.2-164.5-187.5l-5.6 47.7-5.5 47.7c45.3 5.2 79.5 44.6 79.6 92.1v913.9l-410.5-205.2c-13.5-6.8-29.5-6.8-43 0l-410.5 205.2v-913.9c0.1-47.5 34.3-86.9 79.6-92.1 58.5-6.8 117.1-11.9 175.9-15.3 58.8-3.4 117.6-5.1 176.5-5.1q88.3 0 176.5 5.1 88.2 5.1 175.9 15.3z"/><path class="a" d="m1446.6 570.4c-38.8-94.9-149.1-148.8-247.3-120.5-36.3 10.4-67.6 30.7-99.8 54.5-4.5-16.2-7.6-29.1-11.8-41.7-33.2-100.6-143.9-159.5-246.2-131.4-122.9 33.8-186.7 158.5-138 276.7 24.2 58.6 56.1 114.1 84.3 171.2 33.6 68 43.5 92 74.9 155.1 6.3 12.6 29.6 61.4 37 74.6 16.3 29.2 16.8 30 23.5 32.4 6.1 2.3 18.7-2.7 34.6-10.8 27.2-14 54.4-28.4 81.8-42.4 104.5-53.2 209.5-105.2 313.2-159.8 93.6-49.4 133.2-161.8 93.8-257.9z"/></svg>