<svg version="1.2" xmlns="http://www.w3.org/2000/svg" viewBox="0 0 24 24" width="500" height="500"><style>.a{fill:none;stroke:#000;stroke-linecap:round;stroke-linejoin:round;stroke-width:1.5}.b{fill:#e84e6c}</style><path fill-rule="evenodd" class="a" d="m17.6 3.3c1.1 0.2 1.9 1.1 1.9 2.2v15.5l-7.5-3.8-7.5 3.8v-15.5c0-1.1 0.8-2.1 1.9-2.2q1.4-0.1 2.8-0.2 1.4-0.1 2.8-0.1 1.4 0 2.8 0.1 1.4 0.1 2.8 0.2z"/><path class="b" d="m17.2 7.9c0.5-0.4 1-0.7 1.5-0.9 1.6-0.4 3.3 0.4 3.9 1.9 0.6 1.5 0 3.3-1.5 4-1.6 0.9-3.2 1.7-4.9 2.5q-0.6 0.4-1.2 0.7c-0.7 0.4-0.6 0.1-0.8-0.3q-1-1.8-1.9-3.6c-0.4-0.9-0.9-1.8-1.3-2.7-0.8-1.8 0.2-3.8 2.1-4.3 1.6-0.5 3.4 0.5 3.9 2q0.1 0.3 0.2 0.7z"/></svg>